<svg height="300px" width="300px" fill="#88c934" xmlns="http://www.w3.org/2000/svg" viewBox="0 0 32 32" x="0px" y="0px"><g><path d="M20.24,18.83a1,1,0,1,1-1.41,0,1,1,0,0,1,1.41,0Zm-7.07-5.66a1,1,0,1,0-1.41,0A1,1,0,0,0,13.17,13.17ZM28.6,17.38a3.78,3.78,0,0,1,.68,2.93,3.83,3.83,0,0,1-2.32,2,3.78,3.78,0,0,0-1.22.74,4.13,4.13,0,0,0-.34,1.4,3.79,3.79,0,0,1-1.19,2.81,3.81,3.81,0,0,1-3,.27,4.37,4.37,0,0,0-1.46-.11,4.13,4.13,0,0,0-1,.91A3.88,3.88,0,0,1,16,30a3.88,3.88,0,0,1-2.67-1.6,4.13,4.13,0,0,0-1.05-.91,4.12,4.12,0,0,0-1.46.11,3.81,3.81,0,0,1-3-.27A3.79,3.79,0,0,1,6.6,24.48a4.13,4.13,0,0,0-.34-1.4A3.78,3.78,0,0,0,5,22.34a3.83,3.83,0,0,1-2.32-2,3.78,3.78,0,0,1,.68-2.93A4,4,0,0,0,4,16a4,4,0,0,0-.56-1.38,3.78,3.78,0,0,1-.68-2.93A3.83,3.83,0,0,1,5,9.66a3.78,3.78,0,0,0,1.22-.74,4.13,4.13,0,0,0,.34-1.4A3.79,3.79,0,0,1,7.79,4.71a3.81,3.81,0,0,1,3-.27,4.12,4.12,0,0,0,1.46.11,4.13,4.13,0,0,0,1.05-.91A3.88,3.88,0,0,1,16,2a3.88,3.88,0,0,1,2.67,1.6,4.13,4.13,0,0,0,1,.91,4.12,4.12,0,0,0,1.46-.11,3.81,3.81,0,0,1,3,.27A3.79,3.79,0,0,1,25.4,7.52a4.13,4.13,0,0,0,.34,1.4A3.78,3.78,0,0,0,27,9.66a3.83,3.83,0,0,1,2.32,2,3.78,3.78,0,0,1-.68,2.93A4,4,0,0,0,28,16,4,4,0,0,0,28.6,17.38ZM10.34,14.59h0a3,3,0,1,0,0-4.25A3,3,0,0,0,10.34,14.59Zm11.32-2.83a1,1,0,0,0-1.42-1.42l-9.9,9.9a1,1,0,0,0,0,1.42,1,1,0,0,0,1.42,0Zm0,5.65a3,3,0,1,0,0,4.25A3,3,0,0,0,21.66,17.41Z"/></g></svg>