<svg height="300px" width="300px" fill="#88c934" xmlns="http://www.w3.org/2000/svg" viewBox="0 0 512 512" x="0px" y="0px"><circle cx="112.15" cy="344" r="24"/><path d="M175.8,448.459C172.432,412.089,144.944,384,112.15,384S51.868,412.089,48.5,448.459a80,80,0,0,0,127.3,0Z"/><path d="M192.2,160.459a80,80,0,0,0,127.3,0C316.132,124.089,288.645,96,255.85,96S195.568,124.089,192.2,160.459Z"/><circle cx="255.85" cy="56" r="24"/><circle cx="400.15" cy="344" r="24"/><path d="M400.15,384c-32.795,0-60.282,28.089-63.652,64.459a80,80,0,0,0,127.3,0C460.432,412.089,432.944,384,400.15,384Z"/><path d="M400,248H264V232a8,8,0,0,0-16,0v16H112a8,8,0,0,0-8,8v24a8,8,0,0,0,16,0V264H392v16a8,8,0,0,0,16,0V256A8,8,0,0,0,400,248Z"/></svg>