<svg height="300px" width="300px" fill="#88c934" xmlns="http://www.w3.org/2000/svg" xmlns:xlink="http://www.w3.org/1999/xlink" version="1.1" x="0px" y="0px" viewBox="0 0 128 128" style="enable-background:new 0 0 128 128;" xml:space="preserve"><g><g><path d="M116,100.537H12c-1.104,0-2-0.896-2-2V51.45c0-1.104,0.896-2,2-2s2,0.896,2,2v45.087h100V51.558c0-1.104,0.896-2,2-2    s2,0.896,2,2v46.979C118,99.642,117.104,100.537,116,100.537z"/><g><path d="M64,78.858c-5.539,0-10.045-4.511-10.045-10.055c0-5.544,4.506-10.055,10.045-10.055s10.045,4.511,10.045,10.055     C74.045,74.348,69.539,78.858,64,78.858z M64,62.749c-3.333,0-6.045,2.716-6.045,6.055c0,3.338,2.712,6.055,6.045,6.055     c3.333,0,6.045-2.716,6.045-6.055C70.045,65.465,67.333,62.749,64,62.749z"/><path d="M80.089,99.586c-1.104,0-2-0.896-2-2v-10.22c0-2.271-1.593-4.279-3.971-5.016c-0.422-0.092-0.883-0.177-1.267-0.236     l-6.573,11.788c-0.48,0.879-1.455,1.411-2.462,1.331c-0.917-0.069-1.691-0.607-2.068-1.421l-6.51-11.673     c-0.401,0.057-0.875,0.136-1.282,0.214c-2.424,0.816-4.044,2.818-4.044,5.013v10.22c0,1.104-0.896,2-2,2s-2-0.896-2-2v-10.22     c0-3.973,2.785-7.532,6.931-8.857c0.072-0.023,0.146-0.042,0.22-0.057c2.635-0.521,4.29-0.765,5.104,0.725l5.872,10.529     l5.85-10.49c0.858-1.714,3.146-1.205,5.173-0.754c0.046,0.01,0.091,0.022,0.136,0.036c4.123,1.229,6.893,4.793,6.893,8.869v10.22     C82.089,98.691,81.193,99.586,80.089,99.586z M62.788,91.948c-0.004,0.007-0.008,0.015-0.013,0.022L62.788,91.948z M54.665,81.11     c0.005,0.009,0.01,0.019,0.015,0.028L54.665,81.11z M73.495,80.943L73.495,80.943L73.495,80.943z M73.496,80.941     C73.496,80.941,73.496,80.941,73.496,80.941C73.496,80.941,73.496,80.941,73.496,80.941z M73.497,80.938c0,0,0,0.001-0.001,0.001     C73.497,80.939,73.497,80.938,73.497,80.938z M73.499,80.934c-0.001,0.001-0.001,0.002-0.001,0.002     C73.498,80.936,73.498,80.935,73.499,80.934z"/></g><path d="M116,125.431H12c-1.104,0-2-0.896-2-2V98.537c0-1.104,0.896-2,2-2h104c1.104,0,2,0.896,2,2v24.894    C118,124.536,117.104,125.431,116,125.431z M14,121.431h100v-20.894H14V121.431z"/><g><path d="M48.092,56.177c-8.516,0.001-15.403-5.788-16.561-14.104c-0.035-0.25-0.022-0.505,0.038-0.751l8.4-34.367     c0.219-0.895,1.021-1.525,1.943-1.525h21.614c0.531,0,1.041,0.211,1.417,0.588c0.375,0.376,0.585,0.887,0.583,1.418l-0.1,34.016     c0,0.146-0.017,0.288-0.047,0.425c-0.865,8-7.502,13.853-16.226,14.27C48.797,56.167,48.442,56.177,48.092,56.177z      M35.549,41.887c1.067,6.345,6.645,10.642,13.396,10.266c6.786-0.324,11.909-4.802,12.476-10.891     c0.001-0.017,0.003-0.034,0.005-0.05L61.52,9.431H43.482L35.549,41.887z"/><path d="M107.866,56.584c-3.602,0-7.176-1.219-10.082-3.487c-3.157-2.464-5.253-5.908-6.009-9.823     c-0.16-0.21-0.281-0.456-0.349-0.726l-8.7-34.63c-0.15-0.598-0.017-1.231,0.362-1.717s0.961-0.77,1.577-0.77h13.319     c4.035,0,7.634,2.232,8.999,5.567l15.771,29.423l-0.01,0.005c0.192,0.373,0.277,0.809,0.237,1.224l0,0     c-0.742,7.657-5.975,13.723-12.725,14.751C109.465,56.524,108.665,56.584,107.866,56.584z M94.909,39.996     c0.338,0.321,0.566,0.756,0.612,1.247c0.327,3.489,2.005,6.579,4.724,8.701c2.686,2.097,6.118,3.011,9.409,2.505     c4.794-0.73,8.555-5.083,9.289-10.671L103.406,12.79c-0.038-0.07-0.071-0.143-0.101-0.218c-0.733-1.879-2.871-3.141-5.32-3.141     H87.23L94.909,39.996z"/><path d="M19.77,56.474c-0.429,0-0.857-0.018-1.284-0.055C11.547,55.691,5.708,49.388,5.143,42.2     c-0.208-0.521-0.189-1.113,0.064-1.626l14.43-29.255c1.38-3.525,5.031-5.887,9.121-5.887h13.155c0.614,0,1.194,0.282,1.573,0.765     c0.379,0.483,0.515,1.113,0.37,1.71l-8.4,34.367c-0.01,0.039-0.02,0.077-0.032,0.115c-0.186,3.653-1.807,7.069-4.628,9.705     C27.806,54.884,23.764,56.474,19.77,56.474z M9.116,41.689c0.32,5.422,4.637,10.211,9.752,10.748     c3.251,0.279,6.702-0.938,9.196-3.267c2.23-2.083,3.429-4.81,3.375-7.676c-0.008-0.441,0.129-0.869,0.387-1.22l7.538-30.842     H28.757c-2.434,0-4.662,1.396-5.416,3.396c-0.023,0.061-0.049,0.121-0.078,0.179L9.116,41.689z M21.47,12.122h0.01H21.47z"/><path d="M78.334,56.438c-8.599,0-15.781-6.058-16.859-14.556c-0.033-0.144-0.049-0.291-0.049-0.44l0.1-34.016     c0.003-1.102,0.898-1.994,2-1.994h21.14c0.917,0,1.717,0.624,1.939,1.513l8.7,34.63c0.074,0.293,0.08,0.599,0.019,0.895     c-1.505,7.238-7.779,13.064-14.92,13.853C79.707,56.399,79.016,56.438,78.334,56.438z M65.427,41.244     c0.835,7.165,7.095,11.934,14.535,11.102c5.329-0.588,10.034-4.87,11.349-10.259L83.106,9.431H65.52L65.427,41.244z"/></g></g></g></svg>