<svg height="300px" width="300px" fill="#88c934" xmlns="http://www.w3.org/2000/svg" xmlns:xlink="http://www.w3.org/1999/xlink" version="1.1" baseProfile="basic" x="0px" y="0px" viewBox="0 0 90 90" xml:space="preserve"><path d="M55.987,90c-0.546,0-1.093-0.107-1.613-0.323c-1.041-0.431-1.852-1.241-2.281-2.282c-1.448-3.494-4.614-4.739-7.094-4.739  c-2.48,0-5.646,1.245-7.094,4.74c-0.431,1.04-1.241,1.851-2.282,2.281c-1.041,0.432-2.187,0.431-3.228,0l-10.078-4.175  c-1.04-0.431-1.85-1.24-2.281-2.281c-0.431-1.041-0.431-2.186,0-3.228c1.448-3.494,0.09-6.613-1.664-8.367  c-1.753-1.755-4.873-3.113-8.368-1.665c-1.039,0.431-2.186,0.432-3.227,0c-1.041-0.431-1.851-1.241-2.282-2.282L0.322,57.602  c-0.889-2.148,0.135-4.619,2.281-5.509C6.099,50.645,7.344,47.479,7.344,45s-1.246-5.645-4.74-7.093  c-2.147-0.889-3.171-3.36-2.282-5.508L4.497,22.32c0.43-1.04,1.241-1.85,2.281-2.281c1.04-0.431,2.185-0.431,3.227,0  c3.494,1.448,6.614,0.088,8.368-1.665c1.754-1.754,3.112-4.873,1.665-8.368c-0.89-2.147,0.134-4.619,2.281-5.508l10.079-4.175  c2.146-0.892,4.619,0.134,5.508,2.281C39.355,6.099,42.52,7.344,45,7.344c2.48,0,5.646-1.245,7.094-4.74  c0.889-2.146,3.356-3.169,5.508-2.282l10.08,4.176c2.146,0.89,3.17,3.36,2.281,5.508c-1.448,3.495-0.09,6.614,1.663,8.367  c1.753,1.754,4.875,3.114,8.368,1.666c2.147-0.888,4.618,0.133,5.509,2.281l4.175,10.078c0.889,2.148-0.135,4.619-2.281,5.509  c-3.495,1.448-4.74,4.613-4.74,7.093c-0.001,2.48,1.245,5.646,4.74,7.094c0.001,0,0.001,0.001,0.002,0.001  c2.146,0.892,3.168,3.364,2.277,5.51l-4.175,10.077c-0.89,2.149-3.365,3.169-5.509,2.281c-3.498-1.447-6.613-0.091-8.368,1.664  c-1.754,1.753-3.111,4.873-1.664,8.367c0.889,2.149-0.135,4.62-2.282,5.509l-10.077,4.175C57.081,89.893,56.534,90,55.987,90z   M44.998,78.656c4.813,0,8.948,2.763,10.79,7.209c0.023,0.056,0.063,0.095,0.117,0.117c0.055,0.023,0.11,0.023,0.165,0l10.078-4.175  c0.11-0.046,0.162-0.173,0.117-0.283c-1.842-4.446-0.872-9.323,2.531-12.726c3.403-3.404,8.283-4.371,12.727-2.53  c0.107,0.043,0.237-0.008,0.282-0.117l4.175-10.078c0.046-0.11-0.006-0.236-0.115-0.283c-4.447-1.843-7.21-5.976-7.209-10.789  c0-4.813,2.763-8.947,7.209-10.788c0.11-0.045,0.162-0.173,0.117-0.283l-4.175-10.077c-0.045-0.109-0.17-0.163-0.282-0.117  c-4.445,1.842-9.323,0.872-12.728-2.533c-3.402-3.403-4.372-8.279-2.529-12.725c0.045-0.109-0.007-0.237-0.117-0.282L56.072,4.018  c-0.109-0.048-0.237,0.007-0.282,0.116c-1.842,4.448-5.976,7.21-10.789,7.21c0,0,0,0,0,0c-4.813,0-8.947-2.763-10.788-7.21  c-0.045-0.109-0.17-0.161-0.283-0.116L23.85,8.192c-0.11,0.046-0.162,0.172-0.117,0.282c1.842,4.447,0.872,9.324-2.532,12.727  c-3.403,3.403-8.281,4.373-12.727,2.532c-0.054-0.022-0.111-0.021-0.166,0c-0.055,0.023-0.094,0.062-0.116,0.116L4.017,33.929  c-0.045,0.109,0.007,0.236,0.117,0.282c4.447,1.841,7.209,5.976,7.209,10.788s-2.763,8.948-7.21,10.789  c-0.109,0.046-0.162,0.173-0.116,0.283l4.175,10.077c0.023,0.056,0.062,0.095,0.117,0.117c0.055,0.023,0.11,0.023,0.165,0  c4.448-1.842,9.324-0.872,12.728,2.531c3.403,3.404,4.373,8.281,2.531,12.727c-0.022,0.055-0.022,0.11,0,0.165  c0.022,0.056,0.062,0.095,0.116,0.117l10.079,4.175c0.054,0.022,0.109,0.023,0.165,0c0.055-0.022,0.094-0.062,0.117-0.117  C36.051,81.419,40.185,78.656,44.998,78.656z"/><path d="M45,73.875c-15.921,0-28.874-12.953-28.874-28.874S29.079,16.126,45,16.126c15.922,0,28.875,12.953,28.875,28.874  S60.922,73.875,45,73.875z M45,20.126c-13.716,0-24.874,11.159-24.874,24.874c0,13.716,11.159,24.874,24.874,24.874  S69.875,58.717,69.875,45C69.875,31.285,58.716,20.126,45,20.126z"/><g><path d="M45,53.143c-5.304,0-9.619-4.315-9.619-9.619v-4.231c0-5.304,4.315-9.62,9.619-9.62c5.304,0,9.619,4.315,9.619,9.62v4.231   C54.619,48.828,50.304,53.143,45,53.143z M45,33.673c-3.099,0-5.619,2.521-5.619,5.62v4.231c0,3.099,2.52,5.619,5.619,5.619   s5.619-2.52,5.619-5.619v-4.231C50.619,36.194,48.099,33.673,45,33.673z"/><path d="M57.052,71.022c-1.104,0-2-0.895-2-2v-5.827c0-5.543-4.509-10.052-10.052-10.052c-5.542,0-10.052,4.509-10.052,10.052   v5.825c0,1.104-0.895,2-2,2c-1.104,0-2-0.895-2-2v-5.825c0-7.748,6.304-14.052,14.052-14.052s14.052,6.304,14.052,14.052v5.827   C59.052,70.127,58.156,71.022,57.052,71.022z"/></g></svg>